<?xml version="1.0" encoding="UTF-8"?>
<svg width="16" height="16" version="1.1" viewBox="0 0 16 16" xmlns="http://www.w3.org/2000/svg" fill="currentColor">
 <path d="m12.667 0h-9.3333c-1.8407 0-3.3333 1.4927-3.3333 3.3333v9.3333c0 1.8407 1.4927 3.3333 3.3333 3.3333h9.3333c1.8413 0 3.3333-1.4927 3.3333-3.3333v-9.3333c0-1.8407-1.492-3.3333-3.3333-3.3333zm-7.3333 12.667h-2v-7.3333h2zm-1-8.1787c-0.644 0-1.1667-0.52667-1.1667-1.176s0.52267-1.176 1.1667-1.176 1.1667 0.52667 1.1667 1.176-0.522 1.176-1.1667 1.176zm9 8.1787h-2v-3.736c0-2.2453-2.6667-2.0753-2.6667 0v3.736h-2v-7.3333h2v1.1767c0.93067-1.724 4.6667-1.8513 4.6667 1.6507z" stroke-width=".66667"/>
</svg>
